<?xml version="1.0" encoding="utf-8"?>
<!-- Svg Vector Icons : http://www.onlinewebfonts.com/icon -->
<!DOCTYPE svg PUBLIC "-//W3C//DTD SVG 1.1//EN" "http://www.w3.org/Graphics/SVG/1.1/DTD/svg11.dtd">
<svg version="1.1" xmlns="http://www.w3.org/2000/svg" xmlns:xlink="http://www.w3.org/1999/xlink" x="0px" y="0px" viewBox="0 0 1000 1000" enable-background="new 0 0 1000 1000" xml:space="preserve">
<metadata> Svg Vector Icons : http://www.onlinewebfonts.com/icon </metadata>
<g><path d="M957.9,389.5c61.4,65.5,45,180.1-139.2,221c0-81.9-139.1-110.5-319.2-110.5c-192.4,0-327.4,28.7-327.4,114.6C-12.1,577.8-20.3,450.9,53.4,381.3c98.2-98.2,122.8-4.1,446.1-4.1C794.2,377.2,851.5,279,957.9,389.5z"/><g><path d="M499.5,336.3c196.4,0,286.5-45,286.5-45v-45C786,127.6,712.3,8.9,499.5,8.9C278.5,8.9,213,131.7,213,246.2v49.1C213,295.4,303,336.3,499.5,336.3z"/></g><path d="M499.5,581.9c-20.5,0-36.8,8.2-49.1,16.4c4.1-4.1,12.3-8.2,20.5-8.2c20.5,0,40.9,16.3,40.9,40.9c0,20.5-16.4,40.9-40.9,40.9c-20.5,0-40.9-16.4-40.9-40.9c0-8.2,4.1-12.3,8.2-20.5c-12.3,16.3-20.5,32.7-20.5,53.2c0,45,36.8,81.9,81.9,81.9c45,0,81.9-36.8,81.9-81.9S544.5,581.9,499.5,581.9z"/><g><g><g><path d="M274.4,770.1c8.2,4.1,24.6,16.4,36.8,24.6c45,32.7,106.4,73.7,188.3,73.7c86,0,147.4-40.9,192.4-69.6c8.2-4.1,20.5-12.3,28.7-16.3c-4.1,12.3-16.4,32.7-36.9,57.3c-40.9,45-110.5,94.1-184.2,94.1c-77.8,0-155.5-53.2-196.4-102.3C282.6,798.8,278.5,778.3,274.4,770.1 M270.3,704.6c-12.3,0-24.6,4.1-40.9,16.4c-69.6,69.5,94.1,270.1,270.1,270.1S835.1,786.5,769.6,721c-12.3-12.3-24.6-16.4-36.8-16.4c-57.3,0-122.8,98.2-237.4,98.2C389,802.9,327.6,704.6,270.3,704.6L270.3,704.6z"/></g></g></g></g>
</svg>