<?xml version="1.0" encoding="utf-8"?>
<!-- Svg Vector Icons : http://www.onlinewebfonts.com/icon -->
<!DOCTYPE svg PUBLIC "-//W3C//DTD SVG 1.1//EN" "http://www.w3.org/Graphics/SVG/1.1/DTD/svg11.dtd">
<svg version="1.1" xmlns="http://www.w3.org/2000/svg" xmlns:xlink="http://www.w3.org/1999/xlink" x="0px" y="0px" viewBox="0 0 1000 1000" enable-background="new 0 0 1000 1000" xml:space="preserve">
<metadata> Svg Vector Icons : http://www.onlinewebfonts.com/icon </metadata>
<g><path d="M685.5,745H314.6c-17.1,0-30.9,13.7-30.9,30.6c0,16.9,13.8,30.6,30.9,30.6h370.9c17.1,0,30.9-13.7,30.9-30.6C716.4,758.7,702.5,745,685.5,745z M809.1,163.1h-61.8c0-33.8-27.7-61.2-61.8-61.2h-30.9V71.3c0-33.8-27.7-61.3-61.8-61.3H407.3c-34.1,0-61.8,27.4-61.8,61.3v30.6h-30.9c-34.1,0-61.8,27.4-61.8,61.2h-61.8c-51.2,0-92.7,41.1-92.7,91.9v643.1c0,50.7,41.5,91.9,92.7,91.9h618.1c51.2,0,92.7-41.1,92.7-91.9V255C901.8,204.3,860.3,163.1,809.1,163.1z M360.9,163.1h46.4v-30.6c0-33.8,27.7-61.2,61.8-61.2h61.8c34.1,0,61.8,27.4,61.8,61.2v30.6h46.3c25.6,0,46.3,20.6,46.3,45.9c0,25.4-20.7,46-46.3,46H360.9c-25.6,0-46.3-20.6-46.3-46S335.3,163.1,360.9,163.1z M840,867.5c0,33.8-27.7,61.2-61.8,61.2H221.9c-34.2,0-61.8-27.4-61.8-61.2V285.6c0-33.8,27.7-61.2,61.8-61.2h30.9V255c0,33.8,27.7,61.2,61.8,61.2h370.9c37.6,0,50.9-31.9,60.5-62.1c3.4-10.6,1.3-21,1.3-29.7h30.9c34.1,0,61.8,27.4,61.8,61.2V867.5z M685.5,438.8H314.6c-17.1,0-30.9,13.7-30.9,30.6c0,16.9,13.8,30.6,30.9,30.6h370.9c17.1,0,30.9-13.7,30.9-30.6C716.4,452.5,702.5,438.8,685.5,438.8z M685.5,591.9H314.6c-17.1,0-30.9,13.7-30.9,30.6c0,16.9,13.8,30.6,30.9,30.6h370.9c17.1,0,30.9-13.7,30.9-30.6C716.4,605.6,702.5,591.9,685.5,591.9z"/></g>
</svg>