<?xml version="1.0" encoding="utf-8"?>
<!-- Svg Vector Icons : http://www.onlinewebfonts.com/icon -->
<!DOCTYPE svg PUBLIC "-//W3C//DTD SVG 1.1//EN" "http://www.w3.org/Graphics/SVG/1.1/DTD/svg11.dtd">
<svg version="1.1" xmlns="http://www.w3.org/2000/svg" xmlns:xlink="http://www.w3.org/1999/xlink" x="0px" y="0px" viewBox="0 0 1000 1000" enable-background="new 0 0 1000 1000" xml:space="preserve">
<metadata> Svg Vector Icons : http://www.onlinewebfonts.com/icon </metadata>
<g><path d="M63.1,544.9l61.3,28.6c4.1,4.1,12.3,8.2,20.4,8.2h220.5c40.8-24.5,85.8-40.8,134.8-40.8c12.3,0,24.5,0,32.7,4.1c4.1-4.1,8.2-8.2,8.2-16.3V500h-81.7l-40.8-40.8v-28.6c0-8.2-4.1-12.3-12.2-12.3H185.6c-8.2,0-12.3,4.1-12.3,12.3v28.6L132.5,500H50.8v28.6C50.8,536.8,54.9,544.9,63.1,544.9z"/><path d="M22.3,749.1l61.3,28.6c0,4.1,8.2,8.2,12.3,8.2c24.5-24.5,61.3-40.8,98-40.8c24.5,0,44.9,4.1,61.3,16.3c4.1-53.1,28.6-98,61.3-138.8H144.8c-8.2,0-12.3,4.1-12.3,12.3v28.6l-40.8,40.8H10v28.6C10,740.9,14.1,749.1,22.3,749.1z"/><path d="M144.8,177.4L206,206c4.1,4.1,12.3,8.2,20.4,8.2h138.8c8.2,0,16.3-4.1,24.5-4.1l61.3-28.6c4.1-4.1,8.2-12.3,8.2-20.4v-28.6h-81.7l-40.8-40.8l-16.3-61.3c0-12.3-12.3-20.4-24.5-20.4c-12.2,0-24.5,8.2-24.5,20.4L255,91.7l-40.8,40.8h-81.7v28.6C132.5,169.3,136.6,177.4,144.8,177.4z"/><path d="M103.9,340.8l61.3,28.6c4.1,4.1,12.3,8.2,20.4,8.2h220.5c8.2,0,16.3-4.1,24.5-4.1l61.2-28.6c4.1-4.1,8.2-12.3,8.2-20.4v-28.6h-81.7l-32.7-32.7c-4.1-4.1-12.3-8.2-20.4-8.2H226.4c-8.2,0-16.3,4.1-20.4,8.2l-32.7,32.7H91.7v28.6C91.7,332.6,95.8,340.8,103.9,340.8z"/><path d="M704.2,622.5c40.8,0,73.5,16.3,98,44.9c16.3-4.1,28.6-4.1,44.9-4.1c24.5,0,49,4.1,69.4,12.2c-20.4-126.6-53.1-245-89.8-200.1C794,516.3,789.9,304,716.4,304c-53.1,0-81.7,126.6-102.1,261.3c28.6,12.3,53.1,32.7,73.5,57.2C691.9,622.5,696,622.5,704.2,622.5z"/><path d="M847.1,704.2c-24.5,0-44.9,4.1-65.3,16.3c-12.3-32.7-40.8-57.2-77.6-57.2c-8.2,0-12.2,0-16.3,4.1c-4.1,0-12.3,4.1-16.3,4.1c-28.6,12.3-44.9,40.8-44.9,73.5c0,12.3-8.2,20.4-20.4,20.4s-24.5-8.2-24.5-20.4c0-44.9,24.5-85.8,61.3-106.2c-36.7-36.7-85.7-57.2-142.9-57.2c-114.3,0-204.2,89.8-204.2,204.2c0,0,0,0,0,4.1l4.1,4.1c12.2-8.2,24.5-8.2,36.7-8.2c69.4,0,122.5,53.1,122.5,122.5c0,32.7-12.3,61.3-32.7,81.7h420.6c77.6,0,142.9-65.3,142.9-142.9C990,769.5,924.7,704.2,847.1,704.2z"/><path d="M336.7,826.7c-20.4,0-36.7,8.2-49,16.3c-16.3-32.7-53.1-57.2-93.9-57.2s-77.6,24.5-93.9,65.3c-4.1,0-12.3-4.1-16.3-4.1c-40.8,0-73.5,32.7-73.5,73.5S42.7,990,83.5,990h253.2c44.9,0,81.7-36.8,81.7-81.7C418.3,863.4,381.6,826.7,336.7,826.7z"/></g>
</svg>