<?xml version="1.0" encoding="utf-8"?>
<!-- Svg Vector Icons : http://www.onlinewebfonts.com/icon -->
<!DOCTYPE svg PUBLIC "-//W3C//DTD SVG 1.1//EN" "http://www.w3.org/Graphics/SVG/1.1/DTD/svg11.dtd">
<svg version="1.1" xmlns="http://www.w3.org/2000/svg" xmlns:xlink="http://www.w3.org/1999/xlink" x="0px" y="0px" viewBox="0 0 1000 1000" enable-background="new 0 0 1000 1000" xml:space="preserve">
<metadata> Svg Vector Icons : http://www.onlinewebfonts.com/icon </metadata>
<g><g transform="translate(0.000000,512.000000) scale(0.100000,-0.100000)"><path d="M2417.2,4984.8c-95.7-47.9-162.8-162.8-162.8-281.5c0-59.4,13.4-120.6,34.5-155.1c19.2-30.6,377.2-350.4,796.6-708.5l762.1-651.1l-1103-9.6c-1057-11.5-1110.6-13.4-1252.4-51.7C889.1,2958.9,414.2,2529.9,213.1,1978.4C94.4,1647.1,96.3,1718,102.1-882.4c5.7-2361.1,5.7-2363,47.9-2508.5c195.3-689.4,691.3-1175.8,1376.8-1351.9c124.5-32.6,346.6-34.5,3473.6-34.5h3341.5l189.6,53.6C9190.2-4539.9,9659.4-4067,9850.8-3391c42.1,145.5,42.1,147.4,47.9,2508.5c3.8,2037.5,0,2386-24.9,2531.5c-122.6,714.3-639.6,1275.3-1365.3,1478.3c-141.7,38.3-195.3,40.2-1252.4,51.7l-1103,9.6l762.1,651.1c419.4,358.1,777.5,677.9,796.6,708.5c21.1,34.5,34.5,95.7,34.5,155.1c0,180-134,314-310.2,314c-44,0-97.7-7.7-122.6-17.2S6794.7,4577,6216.4,4081l-1053.2-900h-162.8h-162.8l-1045.5,894.3c-574.5,492.1-1068.5,905.8-1097.2,919.2C2622.1,5027,2493.8,5023.1,2417.2,4984.8z M8322.8,2537.6c348.5-72.8,674.1-325.5,831.1-641.5c143.6-293,137.9-162.8,132.1-2763.2l-5.7-2320.9l-51.7-139.8c-72.8-201.1-158.9-337-302.5-482.6c-145.5-143.6-281.5-229.8-482.6-302.5l-139.8-51.7l-3226.6-5.7c-3619.2-5.7-3397-13.4-3693.8,134c-316,157-572.6,486.4-643.4,829.2c-42.1,201.1-42.1,4607.3,0,4806.4c93.8,450,480.6,840.6,928.7,936.4C1859.9,2577.8,8127.4,2577.8,8322.8,2537.6z"/><path d="M2281.2,1922.9c-448.1-95.7-834.9-486.4-928.7-936.4c-42.1-199.1-42.1-3381.7,0-3580.9c86.2-411.7,402.1-758.3,833-913.4l124.5-44l2627.3-5.7c2943.2-5.7,2770.9-13.4,3067.7,134c317.9,157,572.5,484.5,643.4,829.2c42.1,199.2,42.1,3381.7,0,3580.9c-95.7,455.7-482.6,842.6-938.3,938.3C7514.7,1965,2470.8,1965,2281.2,1922.9z M7710,1285.2c120.6-61.3,237.5-176.2,296.8-298.7l47.9-95.7V-803.9v-1694.7l-51.7-97.7c-76.6-145.5-134-204.9-268.1-277.7l-120.6-65.1H5000.4H2386.5l-120.6,65.1c-134,72.8-191.5,132.1-268.1,277.7l-51.7,97.7l-5.7,1656.4c-5.8,1824.9-9.6,1748.3,113,1928.3c65.1,93.8,199.1,191.5,312.1,227.9c63.2,19.2,595.5,23,2663.6,21.1l2585.1-3.8L7710,1285.2z"/></g></g>
</svg>