<?xml version="1.0" encoding="utf-8"?>
<!-- Svg Vector Icons : http://www.onlinewebfonts.com/icon -->
<!DOCTYPE svg PUBLIC "-//W3C//DTD SVG 1.1//EN" "http://www.w3.org/Graphics/SVG/1.1/DTD/svg11.dtd">
<svg version="1.1" xmlns="http://www.w3.org/2000/svg" xmlns:xlink="http://www.w3.org/1999/xlink" x="0px" y="0px" viewBox="0 0 1000 1000" enable-background="new 0 0 1000 1000" xml:space="preserve">
<metadata> Svg Vector Icons : http://www.onlinewebfonts.com/icon </metadata>
<g><path d="M867.5,990h-735c0,0,122.5-81.7,367.5-81.7S867.5,990,867.5,990z"/><path d="M500,10c-73.5,0-122.5,16.3-134.7,81.7c0,0-65.3,441,0,837.1c8.2,81.7,57.2,32.7,130.7,32.7c73.5,0,114.3,69.4,130.7-20.4c73.5-392,0-849.3,0-849.3C610.3,14.1,569.4,10,500,10z"/><path d="M826.7,132.5c-32.7-4.1-40.8,36.7-49,77.6c-8.2,40.8-28.6,118.4-28.6,118.4c-8.1,24.5-16.3,32.7-49,32.7c0,40.8,4.1,85.8,4.1,138.8h4.1c73.5,8.2,138.8-16.3,151.1-134.7c4.1-49,8.2-106.2,8.2-163.3C867.5,152.9,859.3,136.6,826.7,132.5z"/><path d="M173.3,255c28.6-4.1,40.8,24.5,49,69.4c12.2,49,32.7,155.2,32.7,155.2c8.2,24.5,16.3,36.7,49,32.7L438.8,500c40.8-4.1,77.6,28.6,77.6,65.3c4.1,40.8-28.6,77.6-65.3,77.6l-159.2,20.4c-77.6,4.1-138.8-12.2-147-138.8c0,0-12.2-122.5-12.2-187.8C132.5,287.7,140.7,259.1,173.3,255z"/></g>
</svg>